<?xml version="1.0" encoding="utf-8"?>
<!-- Generator: Adobe Illustrator 15.1.0, SVG Export Plug-In . SVG Version: 6.00 Build 0)  -->
<!DOCTYPE svg PUBLIC "-//W3C//DTD SVG 1.1//EN" "http://www.w3.org/Graphics/SVG/1.1/DTD/svg11.dtd">
<svg version="1.1" id="Layer_1" xmlns="http://www.w3.org/2000/svg" xmlns:xlink="http://www.w3.org/1999/xlink" x="0px" y="0px"
	 width="542.1px" height="136.7px" viewBox="0 0 542.1 136.7" enable-background="new 0 0 542.1 136.7" xml:space="preserve">
<g>
	<path fill-rule="evenodd" clip-rule="evenodd" fill="#D71E38" d="M67.9,3c121.8-3.2,277.6-3.3,467.5-2.8c6.8,0,8.6,4.5,4.7,9.9
		c-27.2,38.5-30.7,77.3-47.7,116.5c-2.4,5.6-8.6,10.1-13.3,10.1c-134.7-0.5-290.6-0.5-471.7-2.8c-6.5-0.1-8.9-4.4-6-9.6
		c20.3-37,24.1-75.5,51.3-111.7C56.4,7.4,63.6,3.1,67.9,3L67.9,3z"/>
</g>
<g>
	<path fill="#FFFFFF" d="M99,93.5l1.8-11.5h-19l1.1-7.2h15.2V63.5H84.8l1.1-6.8h18.4l1.7-11.5H72.3l-7.6,48.3H99z"/>
	<path fill="#FFFFFF" d="M148.8,93.5l7.6-48.3h-14.1L138.8,68l-10.7-22.8h-14.5L106,93.5h14.1l4-24.9l11.7,24.9H148.8z"/>
	<path fill="#FFFFFF" d="M192.9,91.6v-13c-3.3,1.6-5.8,2.5-9.4,2.5c-4.3,0-8.2-2.7-8.2-9c0-8.6,4.6-14.5,11.1-14.5
		c3.1,0,6.5,1.5,8.6,3.2l4-13.5c-3.1-1.7-8-2.9-13.6-2.9c-15.5,0-26.4,12.1-26.4,29.3c0,13.6,8.3,20.6,21,20.6
		C185.2,94.3,189,93.4,192.9,91.6z"/>
	<path fill="#FFFFFF" d="M229.4,61.6c0,4.6-3.1,7.2-8.3,7.2h-2.9l1.7-12.3h2.7C226.7,56.5,229.4,58.2,229.4,61.6z M235,76.2
		c6-3.3,9.8-8.2,9.8-15.7c0-9.9-8.1-15.3-20.2-15.3h-17.8l-7.6,48.3h15.5l2-13.2h3.2l6.1,14.2l16.3-2.7L235,76.2z"/>
	<path fill="#FFFFFF" d="M291.1,75.7l4.8-30.5h-15.5l-4.8,30c-0.7,4.5-2.6,6.4-6,6.4c-3.4,0-5.1-1.6-5.1-4.8c0-0.8,0.2-2.4,0.4-3.5
		l4.5-28.2h-15.5l-4.2,26.6c-0.4,2.4-0.6,4.5-0.6,6.6c0,10.8,7,16,19.7,16C282,94.4,289.1,88.1,291.1,75.7z"/>
	<path fill="#FFFFFF" d="M335.9,77.9c0-8.2-4.8-11.4-16.1-15.2c-4.1-1.4-4.9-2.2-4.9-3.7c0-1.5,1-2.9,4-2.9c4.5,0,10.7,2.2,14.7,4.1
		l3.6-11.7c-4.7-2.3-10.9-4.2-18.5-4.2c-10.8,0-18,6.6-18,16.3c0,8.7,5.8,12.1,15.9,15.4c4,1.3,5.1,2.2,5.1,3.5
		c0,1.7-0.9,2.9-4.3,2.9c-5.2,0-12.1-2-18-4.7l-3.9,12c5.4,2.4,13.3,4.5,21.4,4.5C327.2,94.2,335.9,88.6,335.9,77.9z"/>
	<path fill="#FFFFFF" d="M382.9,58.5V45.2h-39.4l-2.1,13.3h12.1l-5.5,35h16.4l5.5-35H382.9z"/>
	<path fill="#FFFFFF" d="M416.5,93.5l1.8-11.5h-19l1.1-7.2h15.2V63.5h-13.3l1.1-6.8h18.4l1.7-11.5h-33.8l-7.6,48.3H416.5z"/>
	<path fill="#FFFFFF" d="M471.1,66c0-13.2-7.8-20.9-24.7-20.9h-15.3l-7.6,48.3h16.4C458.5,93.5,471.1,83,471.1,66z M455.6,66.3
		c0,9.7-5.8,15.2-14.2,15.2h-0.6l3.9-24.4h1.7C452.2,57.1,455.6,59.5,455.6,66.3z"/>
</g>
</svg>
