<?xml version="1.0" standalone="no"?>
<!DOCTYPE svg PUBLIC "-//W3C//DTD SVG 20010904//EN"
 "http://www.w3.org/TR/2001/REC-SVG-20010904/DTD/svg10.dtd">
<svg version="1.0" xmlns="http://www.w3.org/2000/svg"
 width="228.000000pt" height="228.000000pt" viewBox="0 0 228.000000 228.000000"
 preserveAspectRatio="xMidYMid meet">
<metadata>
Created by potrace 1.11, written by Peter Selinger 2001-2013
</metadata>
<g transform="translate(0.000000,228.000000) scale(0.100000,-0.100000)"
fill="#000000" stroke="none">
<path d="M865 2190 c-199 -8 -479 -27 -523 -36 -33 -7 -57 -67 -81 -204 -47
-264 -59 -366 -141 -1215 -12 -115 -30 -286 -42 -379 -15 -117 -18 -180 -12
-205 l9 -36 70 -6 c259 -23 1820 -52 1834 -34 32 41 44 145 101 830 45 546 68
764 107 1000 27 165 33 261 20 283 -6 9 -131 12 -575 10 -312 0 -657 -4 -767
-8z m802 -467 c-3 -16 -13 -83 -23 -150 l-18 -123 -242 0 -241 0 -12 -69 c-20
-123 -36 -111 159 -111 l170 0 0 -145 0 -145 -197 -2 -197 -3 -12 -75 c-7 -41
-13 -83 -13 -92 -1 -17 17 -18 245 -18 l247 0 -6 -36 c-4 -21 -14 -88 -23
-150 l-17 -114 -449 0 c-312 0 -448 3 -448 11 0 15 191 1222 195 1237 3 9 101
12 446 12 l442 0 -6 -27z"/>
</g>
</svg>
